<?xml version="1.0" encoding="UTF-8" standalone="no"?>
<svg
   xmlns:dc="http://purl.org/dc/elements/1.1/"
   xmlns:cc="http://creativecommons.org/ns#"
   xmlns:rdf="http://www.w3.org/1999/02/22-rdf-syntax-ns#"
   xmlns:svg="http://www.w3.org/2000/svg"
   xmlns="http://www.w3.org/2000/svg"
   viewBox="0 0 173.85333 105.78667"
   height="105.78667"
   width="173.85333"
   xml:space="preserve"
   id="svg2"
   version="1.1"><metadata
     id="metadata8"><rdf:RDF><cc:Work
         rdf:about=""><dc:format>image/svg+xml</dc:format><dc:type
           rdf:resource="http://purl.org/dc/dcmitype/StillImage" /></cc:Work></rdf:RDF></metadata><defs
     id="defs6" /><g
     transform="matrix(1.3333333,0,0,-1.3333333,0,105.78667)"
     id="g10"><g
       transform="scale(0.1)"
       id="g12"><path
         id="path14"
         style="fill:#bdbcbc;fill-opacity:1;fill-rule:nonzero;stroke:none"
         d="M 1303.92,0 V 391.68 H 0 V 0 h 1303.92 v 0" /><path
         id="path16"
         style="fill:#bdbcbc;fill-opacity:1;fill-rule:nonzero;stroke:none"
         d="M 1303.92,793.441 H 0 v -380.16 h 1303.92 v 380.16" /><path
         id="path18"
         style="fill:#231f20;fill-opacity:1;fill-rule:nonzero;stroke:none"
         d="m 38.1523,61.9141 v 5.7617 c 0,5.039 4.3282,9.3633 9.3672,9.3633 3.5938,0 6.4727,-2.168 7.918,-5.0352 h 10.8008 v 0 c -2.8789,8.6328 -9.3633,14.3906 -18.7188,14.3906 -10.8007,0 -19.4453,-8.6406 -19.4453,-20.1562 V 48.2422 c 0,-7.207 1.4453,-10.8008 4.3281,-14.4024 3.5938,-4.3203 9.3555,-5.7656 14.3946,-5.7656 10.8008,0 20.1562,7.9219 20.1562,18.7227 0,10.8008 -8.6328,18.7226 -18,18.7226 -3.5937,0 -7.9179,-1.4375 -10.8008,-3.6054 v 0" /><path
         id="path20"
         style="fill:#231f20;fill-opacity:1;fill-rule:nonzero;stroke:none"
         d="m 76.3164,28.8008 h 9.3594 v 8.6406 l -9.3594,0.7109 v -9.3515" /><path
         id="path22"
         style="fill:#231f20;fill-opacity:1;fill-rule:nonzero;stroke:none"
         d="m 113.035,28.0742 c 0.727,0 0.727,0 1.445,0 10.793,0 18.711,7.9219 18.711,18 v 20.8789 c 0,5.7617 -1.433,10.086 -5.039,13.6836 -4.312,3.6016 -8.632,5.7578 -13.672,5.7578 -12.964,0 -19.4409,-10.7968 -19.4409,-19.4414 V 46.7969 c 0,-5.7617 1.4375,-10.0781 5.0389,-13.6836 4.317,-4.3125 8.645,-5.0391 12.957,-5.0391 v 0" /><path
         id="path24"
         style="fill:#231f20;fill-opacity:1;fill-rule:nonzero;stroke:none"
         d="m 146.16,28.8008 h 10.078 V 84.9609 H 146.16 l -5.762,-10.0898 v -5.75 h 5.762 V 28.8008" /><path
         id="path26"
         style="fill:#bdbcbc;fill-opacity:1;fill-rule:nonzero;stroke:none"
         d="m 46.7969,36.7188 c -5.0391,0 -8.6446,3.6015 -8.6446,9.3554 0,6.4844 4.3282,10.086 9.3672,10.086 5.0391,0 8.6407,-3.6016 8.6407,-9.3633 0,-6.4766 -4.3243,-10.0781 -9.3633,-10.0781 v 0" /><path
         id="path28"
         style="fill:#bdbcbc;fill-opacity:1;fill-rule:nonzero;stroke:none"
         d="m 113.762,36.7188 c -5.039,0 -8.645,3.6015 -8.645,8.6406 v 21.5937 c 0,5.7617 4.317,10.086 9.363,10.086 5.04,0 8.633,-4.3243 8.633,-9.3633 V 45.3594 c 0,-4.3242 -3.593,-8.6406 -9.351,-8.6406 v 0" /></g></g></svg>